<svg xmlns="http://www.w3.org/2000/svg" viewBox="0 0 180 180" width="180" height="180"><metadata><rdf:RDF xmlns:rdf="http://www.w3.org/1999/02/22-rdf-syntax-ns#" xmlns:dc="http://purl.org/dc/elements/1.1/"><rdf:Description><dc:creator>RealFaviconGenerator</dc:creator><dc:source>https://realfavicongenerator.net</dc:source></rdf:Description></rdf:RDF></metadata><rect width="180" height="180" rx="40" fill="#1a1a18"></rect><g transform="translate(56 5) scale(0.515)"><path fill="#f0efe8" d="M74.6,113.7v-34.4c1-.3,1.8-1.2,1.8-2.4l.5-32.5c0-1.7,1.7-3.8,2-5.6h0c0-.3,0-.5,0-.7h0s.7-7.3.7-7.3h1c.1.9.4,1.4,1.3,1.5,1,0,2-.7,2.2-1.6.3-1.4-.8-2.6-2.1-2.6s-1.3.6-1.4,1.4h-.8c0,0,.5-5.3.5-5.3h1c.1.9.5,1.4,1.3,1.4.9,0,1.7-.5,2-1.4.5-1.5-.6-2.8-2-2.8s-1.2.5-1.4,1.3h-.9c0,0,.5-5.2.5-5.2h1.1c.1.8.5,1.4,1.4,1.4.9,0,1.7-.5,2-1.4.5-1.5-.6-2.8-2-2.8s-1.2.5-1.4,1.3h-.9c0,0,.4-3.8.4-3.8.1-1.5-1-2.7-2.5-2.7h-13.6c-1.5,0-2.6,1.3-2.5,2.7l.4,3.9h-.9c-.1-.8-.5-1.4-1.4-1.4-.9,0-1.7.5-2,1.4-.5,1.5.6,2.8,2,2.8s1.2-.5,1.4-1.3h1.1c0,0,.5,5.2.5,5.2h-.9c-.1-.9-.5-1.4-1.3-1.4-.9,0-1.7.5-2,1.4-.5,1.5.6,2.8,2,2.8s1.2-.5,1.4-1.3h1c0,0,.5,5.3.5,5.3h-.8c-.1-.8-.4-1.4-1.3-1.4-1,0-2,.7-2.2,1.6-.3,1.4.8,2.6,2.1,2.6s1.3-.6,1.4-1.4h1c0,0,.7,7.2.7,7.2h0c0,.2,0,.4,0,.7h0c.4,1.8,2,3.9,2,5.6l.5,32.5c0,1.1.8,2.1,1.8,2.4v34.4c-6.6.3-10.5,5.8-10.5,12.4l-2.7,37.4,12.3-40.4c1.4-2.4,4.8-2.4,6.2,0l12.3,40.4-2.7-37.4c0-6.6-3.8-12.1-10.3-12.4z"></path><polygon fill="red" points="72.2 131.6 86.8 176.4 134 176.4 95.8 204.2 110.4 249 72.2 221.3 34.1 249 48.6 204.2 10.5 176.4 57.6 176.4 72.2 131.6"></polygon></g></svg>